<svg width="119" height="29" viewBox="0 0 119 29" fill="none" xmlns="http://www.w3.org/2000/svg">
<g filter="url(#filter0_dd_9767_5207)">
<rect x="3" y="2" width="24" height="24" rx="4" fill="#0C111D"/>
<path d="M20.103 5.18307L20.0114 5H10.0114L5 13.8101L9.98856 22.6202H19.9886L25 13.8101L20.103 5.18307ZM11.1785 8.1579L5.8238 13.2838L10.0801 5.77803L11.1785 8.1579ZM19.7369 5.75515L21.2014 13.9245L12.0023 8.27232L19.7369 5.75515ZM11.6819 8.61556L21.0641 14.3822L11.6819 19.714V8.61556ZM21.1785 14.8398L19.5309 21.8879L12.0709 20.0343L21.1785 14.8398ZM11.2242 19.5309L5.8238 13.9245L11.2242 8.72998V19.5309ZM11.1556 20.1259L10.103 21.8879L6.18993 14.9771L11.1556 20.1259ZM11.5675 20.3547L18.7528 22.1625H10.4691L11.5675 20.3547ZM21.7048 14.5652L24.3593 13.9932L20.0572 21.5904L21.7048 14.5652ZM24.3135 13.5584L21.7048 14.1305L20.3547 6.55607L24.3135 13.5584ZM11.5675 7.92906L10.4233 5.45767H19.1648L11.5675 7.92906Z" fill="url(#paint0_linear_9767_5207)" stroke="#F2F230" stroke-width="0.368383"/>
</g>
<path d="M33.7467 21V8.76192H35.7922L42.8903 18.3251L42.5056 18.395C42.459 18.0687 42.4182 17.7365 42.3833 17.3985C42.3483 17.0488 42.3133 16.6875 42.2784 16.3146C42.255 15.9416 42.2317 15.5511 42.2084 15.1432C42.1968 14.7353 42.1851 14.3099 42.1735 13.867C42.1618 13.4124 42.156 12.9345 42.156 12.4333V8.76192H44.4113V21H42.3308L35.1978 11.5767L35.6523 11.4543C35.7106 12.107 35.7572 12.6665 35.7922 13.1327C35.8388 13.5872 35.8738 13.9835 35.8971 14.3215C35.9204 14.6479 35.9379 14.9218 35.9495 15.1432C35.9728 15.3647 35.9845 15.5686 35.9845 15.7551C35.9961 15.9299 36.002 16.0989 36.002 16.2621V21H33.7467ZM46.5941 21V11.7865H48.7445V21H46.5941ZM47.643 9.82839C47.2118 9.82839 46.8738 9.72349 46.629 9.51369C46.3959 9.29224 46.2794 8.98338 46.2794 8.5871C46.2794 8.21413 46.4017 7.91109 46.6465 7.67798C46.8913 7.44487 47.2234 7.32832 47.643 7.32832C48.0859 7.32832 48.4239 7.43905 48.657 7.6605C48.9018 7.87029 49.0242 8.17916 49.0242 8.5871C49.0242 8.94841 48.9018 9.24562 48.657 9.47873C48.4123 9.71183 48.0743 9.82839 47.643 9.82839ZM50.1251 21V19.4615L54.9329 13.1327V13.5872H50.1251V11.7865H57.1707V13.325L52.5027 19.5314L52.4328 19.1993H57.2931V21H50.1251ZM61.7175 21.1748C60.9599 21.1748 60.2722 20.965 59.6545 20.5454C59.0368 20.1259 58.5414 19.5547 58.1685 18.8321C57.7955 18.1095 57.609 17.2878 57.609 16.367C57.609 15.4462 57.7955 14.6245 58.1685 13.9019C58.5414 13.1793 59.0484 12.614 59.6895 12.2061C60.3305 11.7981 61.0531 11.5942 61.8574 11.5942C62.3236 11.5942 62.749 11.6641 63.1336 11.804C63.5182 11.9322 63.8562 12.1187 64.1476 12.3634C64.439 12.6082 64.6779 12.8879 64.8644 13.2026C65.0626 13.5173 65.1966 13.8553 65.2665 14.2166L64.7945 14.0942V11.7865H66.9624V21H64.777V18.7971L65.284 18.7097C65.2024 19.0244 65.0509 19.3333 64.8295 19.6363C64.6197 19.9277 64.3516 20.19 64.0253 20.4231C63.7106 20.6445 63.3551 20.8252 62.9588 20.965C62.5742 21.1049 62.1604 21.1748 61.7175 21.1748ZM62.3119 19.2692C62.8131 19.2692 63.256 19.1468 63.6406 18.902C64.0253 18.6573 64.3225 18.3193 64.5323 17.888C64.7537 17.4451 64.8644 16.9381 64.8644 16.367C64.8644 15.8076 64.7537 15.3122 64.5323 14.881C64.3225 14.4497 64.0253 14.1117 63.6406 13.867C63.256 13.6222 62.8131 13.4998 62.3119 13.4998C61.8107 13.4998 61.3678 13.6222 60.9832 13.867C60.6102 14.1117 60.3189 14.4497 60.1091 14.881C59.8993 15.3122 59.7944 15.8076 59.7944 16.367C59.7944 16.9381 59.8993 17.4451 60.1091 17.888C60.3189 18.3193 60.6102 18.6573 60.9832 18.902C61.3678 19.1468 61.8107 19.2692 62.3119 19.2692Z" fill="#21262D"/>
<path d="M78.2485 21.1748C77.3627 21.1748 76.5526 21.0233 75.8183 20.7203C75.084 20.4172 74.4488 19.986 73.9127 19.4265C73.3765 18.8554 72.9569 18.1852 72.6539 17.416C72.3625 16.6351 72.2168 15.7842 72.2168 14.8635C72.2168 13.9777 72.3742 13.156 72.6889 12.3984C73.0036 11.6408 73.4406 10.9764 74.0001 10.4053C74.5596 9.83421 75.2123 9.39131 75.9582 9.07662C76.7041 8.76192 77.5142 8.60458 78.3883 8.60458C78.9827 8.60458 79.5597 8.69199 80.1191 8.86682C80.6786 9.04165 81.1914 9.28641 81.6576 9.60111C82.1239 9.90415 82.5143 10.2596 82.829 10.6676L81.3779 12.2585C81.0749 11.9438 80.7602 11.6816 80.4338 11.4718C80.1191 11.2503 79.787 11.0872 79.4373 10.9823C79.0993 10.8657 78.7496 10.8074 78.3883 10.8074C77.8522 10.8074 77.3452 10.9065 76.8673 11.1046C76.4011 11.3028 75.9932 11.5825 75.6435 11.9438C75.3055 12.3051 75.0374 12.7364 74.8393 13.2376C74.6411 13.7271 74.5421 14.2749 74.5421 14.881C74.5421 15.4987 74.6353 16.0581 74.8218 16.5593C75.0199 17.0605 75.2938 17.4918 75.6435 17.8531C76.0048 18.2144 76.4302 18.4941 76.9198 18.6922C77.4209 18.8787 77.9687 18.972 78.5632 18.972C78.9478 18.972 79.3207 18.9195 79.6821 18.8146C80.0434 18.7097 80.3756 18.564 80.6786 18.3776C80.9933 18.1794 81.2788 17.9521 81.5353 17.6957L82.6542 19.4965C82.3744 19.8112 82.0015 20.0967 81.5353 20.3531C81.069 20.6095 80.5446 20.8135 79.9618 20.965C79.3907 21.1049 78.8196 21.1748 78.2485 21.1748ZM83.6611 21V8.06261H85.794V13.6746L85.3919 13.8844C85.5084 13.4648 85.7357 13.086 86.0737 12.748C86.4117 12.3984 86.8138 12.1187 87.28 11.9089C87.7463 11.6991 88.2241 11.5942 88.7137 11.5942C89.413 11.5942 89.9957 11.734 90.4619 12.0138C90.9398 12.2935 91.2953 12.7131 91.5284 13.2725C91.7732 13.832 91.8956 14.5313 91.8956 15.3705V21H89.7451V15.5278C89.7451 15.0616 89.681 14.677 89.5528 14.374C89.4246 14.0593 89.2265 13.832 88.9584 13.6921C88.6903 13.5406 88.364 13.4707 87.9794 13.4823C87.6647 13.4823 87.3733 13.5348 87.1052 13.6397C86.8488 13.7329 86.6215 13.8728 86.4234 14.0593C86.2369 14.2341 86.0854 14.4381 85.9688 14.6712C85.8639 14.9043 85.8115 15.1607 85.8115 15.4404V21H84.745C84.5352 21 84.3371 21 84.1506 21C83.9758 21 83.8126 21 83.6611 21ZM96.8323 21.1748C96.0747 21.1748 95.387 20.965 94.7693 20.5454C94.1516 20.1259 93.6562 19.5547 93.2833 18.8321C92.9103 18.1095 92.7238 17.2878 92.7238 16.367C92.7238 15.4462 92.9103 14.6245 93.2833 13.9019C93.6562 13.1793 94.1632 12.614 94.8043 12.2061C95.4453 11.7981 96.168 11.5942 96.9722 11.5942C97.4384 11.5942 97.8638 11.6641 98.2484 11.804C98.6331 11.9322 98.9711 12.1187 99.2624 12.3634C99.5538 12.6082 99.7928 12.8879 99.9792 13.2026C100.177 13.5173 100.311 13.8553 100.381 14.2166L99.9093 14.0942V11.7865H102.077V21H99.8918V18.7971L100.399 18.7097C100.317 19.0244 100.166 19.3333 99.9443 19.6363C99.7345 19.9277 99.4664 20.19 99.1401 20.4231C98.8254 20.6445 98.4699 20.8252 98.0736 20.965C97.689 21.1049 97.2752 21.1748 96.8323 21.1748ZM97.4267 19.2692C97.9279 19.2692 98.3708 19.1468 98.7554 18.902C99.1401 18.6573 99.4373 18.3193 99.6471 17.888C99.8685 17.4451 99.9792 16.9381 99.9792 16.367C99.9792 15.8076 99.8685 15.3122 99.6471 14.881C99.4373 14.4497 99.1401 14.1117 98.7554 13.867C98.3708 13.6222 97.9279 13.4998 97.4267 13.4998C96.9255 13.4998 96.4826 13.6222 96.098 13.867C95.7251 14.1117 95.4337 14.4497 95.2239 14.881C95.0141 15.3122 94.9092 15.8076 94.9092 16.367C94.9092 16.9381 95.0141 17.4451 95.2239 17.888C95.4337 18.3193 95.7251 18.6573 96.098 18.902C96.4826 19.1468 96.9255 19.2692 97.4267 19.2692ZM103.853 21V11.7865H106.004V21H103.853ZM104.902 9.82839C104.471 9.82839 104.133 9.72349 103.888 9.51369C103.655 9.29224 103.539 8.98338 103.539 8.5871C103.539 8.21413 103.661 7.91109 103.906 7.67798C104.151 7.44487 104.483 7.32832 104.902 7.32832C105.345 7.32832 105.683 7.43905 105.916 7.6605C106.161 7.87029 106.284 8.17916 106.284 8.5871C106.284 8.94841 106.161 9.24562 105.916 9.47873C105.672 9.71183 105.334 9.82839 104.902 9.82839ZM107.769 21V11.7865H109.867L109.902 13.6746L109.5 13.8844C109.616 13.4648 109.844 13.086 110.182 12.748C110.52 12.3984 110.922 12.1187 111.388 11.9089C111.854 11.6991 112.332 11.5942 112.822 11.5942C113.521 11.5942 114.104 11.734 114.57 12.0138C115.048 12.2935 115.403 12.7131 115.636 13.2725C115.881 13.832 116.004 14.5313 116.004 15.3705V21H113.853V15.5278C113.853 15.0616 113.789 14.677 113.661 14.374C113.533 14.0593 113.335 13.832 113.066 13.6921C112.798 13.5406 112.472 13.4707 112.087 13.4823C111.773 13.4823 111.481 13.5348 111.213 13.6397C110.957 13.7329 110.73 13.8728 110.531 14.0593C110.345 14.2341 110.193 14.4381 110.077 14.6712C109.972 14.9043 109.92 15.1607 109.92 15.4404V21H108.853C108.643 21 108.445 21 108.259 21C108.084 21 107.921 21 107.769 21Z" fill="#DADA40"/>
<defs>
<filter id="filter0_dd_9767_5207" x="0.75" y="0.5" width="28.5" height="28.5" filterUnits="userSpaceOnUse" color-interpolation-filters="sRGB">
<feFlood flood-opacity="0" result="BackgroundImageFix"/>
<feColorMatrix in="SourceAlpha" type="matrix" values="0 0 0 0 0 0 0 0 0 0 0 0 0 0 0 0 0 0 127 0" result="hardAlpha"/>
<feOffset dy="0.75"/>
<feGaussianBlur stdDeviation="0.75"/>
<feColorMatrix type="matrix" values="0 0 0 0 0.0627451 0 0 0 0 0.0941176 0 0 0 0 0.156863 0 0 0 0.06 0"/>
<feBlend mode="normal" in2="BackgroundImageFix" result="effect1_dropShadow_9767_5207"/>
<feColorMatrix in="SourceAlpha" type="matrix" values="0 0 0 0 0 0 0 0 0 0 0 0 0 0 0 0 0 0 127 0" result="hardAlpha"/>
<feOffset dy="0.75"/>
<feGaussianBlur stdDeviation="1.125"/>
<feColorMatrix type="matrix" values="0 0 0 0 0.0627451 0 0 0 0 0.0941176 0 0 0 0 0.156863 0 0 0 0.1 0"/>
<feBlend mode="normal" in2="effect1_dropShadow_9767_5207" result="effect2_dropShadow_9767_5207"/>
<feBlend mode="normal" in="SourceGraphic" in2="effect2_dropShadow_9767_5207" result="shape"/>
</filter>
<linearGradient id="paint0_linear_9767_5207" x1="25.113" y1="8.63856" x2="4.91169" y2="7.39707" gradientUnits="userSpaceOnUse">
<stop stop-color="#F2F230"/>
<stop offset="1" stop-color="#888827"/>
</linearGradient>
</defs>
</svg>
