<svg width="114" height="29" viewBox="0 0 114 29" fill="none" xmlns="http://www.w3.org/2000/svg">
<g filter="url(#filter0_dd_9767_5224)">
<rect x="3" y="2" width="24" height="24" rx="4" fill="#F1F131"/>
<path d="M20.103 5.18307L20.0114 5H10.0114L5 13.8101L9.98856 22.6202H19.9886L25 13.8101L20.103 5.18307ZM11.1785 8.1579L5.8238 13.2838L10.0801 5.77803L11.1785 8.1579ZM19.7369 5.75515L21.2014 13.9245L12.0023 8.27231L19.7369 5.75515ZM11.6819 8.61556L21.0641 14.3822L11.6819 19.714V8.61556ZM21.1785 14.8398L19.5309 21.8879L12.0709 20.0343L21.1785 14.8398ZM11.2242 19.5309L5.8238 13.9245L11.2242 8.72998V19.5309ZM11.1556 20.1259L10.103 21.8879L6.18993 14.9771L11.1556 20.1259ZM11.5675 20.3547L18.7528 22.1625H10.4691L11.5675 20.3547ZM21.7048 14.5652L24.3593 13.9932L20.0572 21.5904L21.7048 14.5652ZM24.3135 13.5584L21.7048 14.1305L20.3547 6.55607L24.3135 13.5584ZM11.5675 7.92906L10.4233 5.45767H19.1648L11.5675 7.92906Z" fill="#1D2939" stroke="#1D2939" stroke-width="0.368383"/>
</g>
<path d="M33.4935 20.5V8.72125H35.4623L42.2939 17.9255L41.9237 17.9928C41.8789 17.6787 41.8396 17.359 41.806 17.0337C41.7723 16.6971 41.7386 16.3494 41.705 15.9904C41.6826 15.6314 41.6601 15.2557 41.6377 14.863C41.6265 14.4704 41.6153 14.0609 41.604 13.6347C41.5928 13.1972 41.5872 12.7372 41.5872 12.2549V8.72125H43.7579V20.5H41.7555L34.8901 11.4304L35.3276 11.3126C35.3837 11.9408 35.4286 12.4792 35.4623 12.9279C35.5071 13.3654 35.5408 13.7468 35.5632 14.0722C35.5857 14.3863 35.6025 14.6499 35.6137 14.863C35.6361 15.0762 35.6474 15.2725 35.6474 15.452C35.6586 15.6202 35.6642 15.7829 35.6642 15.9399V20.5H33.4935ZM45.8587 20.5V11.6323H47.9284V20.5H45.8587ZM46.8683 9.74768C46.4533 9.74768 46.1279 9.64672 45.8924 9.4448C45.668 9.23166 45.5558 8.93439 45.5558 8.55298C45.5558 8.19401 45.6736 7.90234 45.9092 7.67799C46.1448 7.45363 46.4645 7.34145 46.8683 7.34145C47.2946 7.34145 47.6199 7.44802 47.8443 7.66116C48.0799 7.86308 48.1976 8.16035 48.1976 8.55298C48.1976 8.90073 48.0799 9.18679 47.8443 9.41114C47.6087 9.6355 47.2834 9.74768 46.8683 9.74768ZM49.2572 20.5V19.0192L53.8846 12.9279V13.3654H49.2572V11.6323H56.0384V13.113L51.5456 19.0865L51.4783 18.7668H56.1562V20.5H49.2572ZM60.4145 20.6683C59.6854 20.6683 59.0235 20.4663 58.429 20.0625C57.8344 19.6587 57.3577 19.109 56.9987 18.4135C56.6397 17.718 56.4603 16.9271 56.4603 16.0409C56.4603 15.1547 56.6397 14.3638 56.9987 13.6683C57.3577 12.9728 57.8457 12.4287 58.4626 12.0361C59.0796 11.6435 59.7751 11.4472 60.5492 11.4472C60.9979 11.4472 61.4073 11.5145 61.7775 11.6491C62.1477 11.7725 62.473 11.952 62.7535 12.1876C63.0339 12.4231 63.2639 12.6924 63.4434 12.9953C63.6341 13.2981 63.7631 13.6235 63.8304 13.9712L63.3761 13.8534V11.6323H65.4626V20.5H63.3592V18.3798L63.8472 18.2957C63.7687 18.5986 63.6229 18.8958 63.4097 19.1875C63.2078 19.468 62.9498 19.7204 62.6357 19.9447C62.3328 20.1579 61.9907 20.3317 61.6092 20.4663C61.2391 20.601 60.8408 20.6683 60.4145 20.6683ZM60.9867 18.8341C61.469 18.8341 61.8953 18.7164 62.2655 18.4808C62.6357 18.2452 62.9217 17.9199 63.1237 17.5048C63.3368 17.0786 63.4434 16.5906 63.4434 16.0409C63.4434 15.5024 63.3368 15.0257 63.1237 14.6106C62.9217 14.1956 62.6357 13.8702 62.2655 13.6347C61.8953 13.3991 61.469 13.2813 60.9867 13.2813C60.5043 13.2813 60.078 13.3991 59.7078 13.6347C59.3489 13.8702 59.0684 14.1956 58.8665 14.6106C58.6646 15.0257 58.5636 15.5024 58.5636 16.0409C58.5636 16.5906 58.6646 17.0786 58.8665 17.5048C59.0684 17.9199 59.3489 18.2452 59.7078 18.4808C60.078 18.7164 60.5043 18.8341 60.9867 18.8341Z" fill="white"/>
<path d="M76.3251 20.6683C75.4725 20.6683 74.6929 20.5224 73.9861 20.2308C73.2794 19.9391 72.668 19.524 72.152 18.9856C71.636 18.4359 71.2322 17.7909 70.9405 17.0505C70.66 16.2989 70.5198 15.48 70.5198 14.5938C70.5198 13.7412 70.6713 12.9504 70.9741 12.2212C71.277 11.4921 71.6977 10.8526 72.2362 10.303C72.7746 9.75329 73.4028 9.32701 74.1208 9.02413C74.8387 8.72125 75.6183 8.56981 76.4597 8.56981C77.0318 8.56981 77.5871 8.65394 78.1255 8.82221C78.664 8.99048 79.1576 9.22605 79.6063 9.52893C80.055 9.8206 80.4308 10.1627 80.7337 10.5554L79.3371 12.0866C79.0454 11.7837 78.7425 11.5313 78.4284 11.3294C78.1255 11.1163 77.8058 10.9592 77.4693 10.8582C77.144 10.7461 76.8074 10.69 76.4597 10.69C75.9437 10.69 75.4557 10.7853 74.9957 10.976C74.547 11.1667 74.1544 11.436 73.8179 11.7837C73.4926 12.1315 73.2345 12.5465 73.0438 13.0289C72.8531 13.5001 72.7578 14.0273 72.7578 14.6106C72.7578 15.2052 72.8475 15.7436 73.027 16.226C73.2177 16.7084 73.4813 17.1234 73.8179 17.4712C74.1656 17.8189 74.5751 18.0882 75.0462 18.2789C75.5286 18.4583 76.0558 18.5481 76.6279 18.5481C76.9981 18.5481 77.3571 18.4976 77.7049 18.3967C78.0526 18.2957 78.3723 18.1555 78.664 17.976C78.9669 17.7853 79.2417 17.5665 79.4885 17.3197L80.5654 19.0529C80.2962 19.3558 79.9372 19.6306 79.4885 19.8774C79.0398 20.1242 78.535 20.3205 77.9741 20.4663C77.4244 20.601 76.8747 20.6683 76.3251 20.6683ZM81.5345 20.5V8.04818H83.5874V13.4496L83.2004 13.6515C83.3126 13.2477 83.5313 12.8831 83.8566 12.5578C84.1819 12.2212 84.569 11.952 85.0177 11.7501C85.4664 11.5481 85.9263 11.4472 86.3975 11.4472C87.0705 11.4472 87.6314 11.5818 88.0802 11.851C88.5401 12.1203 88.8822 12.5241 89.1066 13.0626C89.3422 13.601 89.46 14.2741 89.46 15.0818V20.5H87.3903V15.2332C87.3903 14.7845 87.3286 14.4143 87.2052 14.1226C87.0818 13.8198 86.8911 13.601 86.6331 13.4664C86.375 13.3206 86.0609 13.2533 85.6908 13.2645C85.3879 13.2645 85.1074 13.315 84.8494 13.4159C84.6026 13.5057 84.3839 13.6403 84.1932 13.8198C84.0137 13.988 83.8678 14.1843 83.7557 14.4087C83.6547 14.6331 83.6042 14.8799 83.6042 15.1491V20.5H82.5778C82.3759 20.5 82.1852 20.5 82.0057 20.5C81.8374 20.5 81.6804 20.5 81.5345 20.5ZM94.2114 20.6683C93.4823 20.6683 92.8204 20.4663 92.2259 20.0625C91.6313 19.6587 91.1545 19.109 90.7956 18.4135C90.4366 17.718 90.2571 16.9271 90.2571 16.0409C90.2571 15.1547 90.4366 14.3638 90.7956 13.6683C91.1545 12.9728 91.6425 12.4287 92.2595 12.0361C92.8765 11.6435 93.572 11.4472 94.346 11.4472C94.7947 11.4472 95.2042 11.5145 95.5744 11.6491C95.9446 11.7725 96.2699 11.952 96.5503 12.1876C96.8308 12.4231 97.0608 12.6924 97.2402 12.9953C97.4309 13.2981 97.5599 13.6235 97.6273 13.9712L97.1729 13.8534V11.6323H99.2595V20.5H97.1561V18.3798L97.6441 18.2957C97.5656 18.5986 97.4197 18.8958 97.2066 19.1875C97.0047 19.468 96.7467 19.7204 96.4326 19.9447C96.1297 20.1579 95.7875 20.3317 95.4061 20.4663C95.0359 20.601 94.6377 20.6683 94.2114 20.6683ZM94.7835 18.8341C95.2659 18.8341 95.6922 18.7164 96.0624 18.4808C96.4326 18.2452 96.7186 17.9199 96.9205 17.5048C97.1337 17.0786 97.2402 16.5906 97.2402 16.0409C97.2402 15.5024 97.1337 15.0257 96.9205 14.6106C96.7186 14.1956 96.4326 13.8702 96.0624 13.6347C95.6922 13.3991 95.2659 13.2813 94.7835 13.2813C94.3012 13.2813 93.8749 13.3991 93.5047 13.6347C93.1457 13.8702 92.8653 14.1956 92.6634 14.6106C92.4614 15.0257 92.3605 15.5024 92.3605 16.0409C92.3605 16.5906 92.4614 17.0786 92.6634 17.5048C92.8653 17.9199 93.1457 18.2452 93.5047 18.4808C93.8749 18.7164 94.3012 18.8341 94.7835 18.8341ZM100.969 20.5V11.6323H103.039V20.5H100.969ZM101.979 9.74768C101.564 9.74768 101.238 9.64672 101.003 9.4448C100.778 9.23166 100.666 8.93439 100.666 8.55298C100.666 8.19401 100.784 7.90234 101.02 7.67799C101.255 7.45363 101.575 7.34145 101.979 7.34145C102.405 7.34145 102.73 7.44802 102.955 7.66116C103.19 7.86308 103.308 8.16035 103.308 8.55298C103.308 8.90073 103.19 9.18679 102.955 9.41114C102.719 9.6355 102.394 9.74768 101.979 9.74768ZM104.738 20.5V11.6323H106.757L106.791 13.4496L106.404 13.6515C106.516 13.2477 106.735 12.8831 107.06 12.5578C107.385 12.2212 107.772 11.952 108.221 11.7501C108.67 11.5481 109.13 11.4472 109.601 11.4472C110.274 11.4472 110.835 11.5818 111.283 11.851C111.743 12.1203 112.085 12.5241 112.31 13.0626C112.545 13.601 112.663 14.2741 112.663 15.0818V20.5H110.593V15.2332C110.593 14.7845 110.532 14.4143 110.408 14.1226C110.285 13.8198 110.094 13.601 109.836 13.4664C109.578 13.3206 109.264 13.2533 108.894 13.2645C108.591 13.2645 108.311 13.315 108.053 13.4159C107.806 13.5057 107.587 13.6403 107.396 13.8198C107.217 13.988 107.071 14.1843 106.959 14.4087C106.858 14.6331 106.807 14.8799 106.807 15.1491V20.5H105.781C105.579 20.5 105.388 20.5 105.209 20.5C105.041 20.5 104.884 20.5 104.738 20.5Z" fill="url(#paint0_linear_9767_5224)"/>
<defs>
<filter id="filter0_dd_9767_5224" x="0.75" y="0.5" width="28.5" height="28.5" filterUnits="userSpaceOnUse" color-interpolation-filters="sRGB">
<feFlood flood-opacity="0" result="BackgroundImageFix"/>
<feColorMatrix in="SourceAlpha" type="matrix" values="0 0 0 0 0 0 0 0 0 0 0 0 0 0 0 0 0 0 127 0" result="hardAlpha"/>
<feOffset dy="0.75"/>
<feGaussianBlur stdDeviation="0.75"/>
<feColorMatrix type="matrix" values="0 0 0 0 0.0627451 0 0 0 0 0.0941176 0 0 0 0 0.156863 0 0 0 0.06 0"/>
<feBlend mode="normal" in2="BackgroundImageFix" result="effect1_dropShadow_9767_5224"/>
<feColorMatrix in="SourceAlpha" type="matrix" values="0 0 0 0 0 0 0 0 0 0 0 0 0 0 0 0 0 0 127 0" result="hardAlpha"/>
<feOffset dy="0.75"/>
<feGaussianBlur stdDeviation="1.125"/>
<feColorMatrix type="matrix" values="0 0 0 0 0.0627451 0 0 0 0 0.0941176 0 0 0 0 0.156863 0 0 0 0.1 0"/>
<feBlend mode="normal" in2="effect1_dropShadow_9767_5224" result="effect2_dropShadow_9767_5224"/>
<feBlend mode="normal" in="SourceGraphic" in2="effect2_dropShadow_9767_5224" result="shape"/>
</filter>
<linearGradient id="paint0_linear_9767_5224" x1="114.375" y1="7.83649" x2="34.7939" y2="-8.98817" gradientUnits="userSpaceOnUse">
<stop stop-color="#F2F230"/>
<stop offset="1" stop-color="#888827"/>
</linearGradient>
</defs>
</svg>
