<svg width="72" height="72" viewBox="0 0 72 72" fill="none" xmlns="http://www.w3.org/2000/svg">
<path d="M25.7494 54.3931V54.4092L35.1422 59.8334L44.5431 54.4092V54.3931L35.1422 48.9609L25.7494 54.3931Z" fill="#EEE93B"/>
<path d="M25.7494 17.6773V17.6934L35.1422 23.1256L44.5431 17.6934V17.6773L35.1422 12.2532L25.7494 17.6773Z" fill="#EEE93B"/>
<path d="M29.3914 5.31878V5.33486L35.1444 8.65364L40.8974 5.33486V5.31878L35.1444 2L29.3914 5.31878Z" fill="#EEE93B"/>
<path d="M29.3914 66.7524V66.7684L35.1444 70.0872L40.8974 66.7684V66.7524L35.1444 63.4336L29.3914 66.7524Z" fill="#EEE93B"/>
<path d="M57.1752 46.2045L46.7057 53.0109V43.6652L57.1752 36.8669V46.2045Z" fill="#EEE93B"/>
<path d="M13.11 46.2045L23.5876 53.0109V43.6652L13.11 36.8669V46.2045Z" fill="#EEE93B"/>
<path d="M13.11 46.2045L23.5876 53.0109V43.6652L13.11 36.8669V46.2045Z" fill="#EEE93B"/>
<path d="M57.1752 46.2045L46.7057 53.0109V43.6652L57.1752 36.8669V46.2045Z" fill="#EEE93B"/>
<path d="M13.11 24.444L23.5876 17.6377V26.9833L13.11 33.7816V24.444Z" fill="#EEE93B"/>
<path d="M57.1752 24.444L46.7057 17.6377V26.9833L57.1752 33.7816V24.444Z" fill="#EEE93B"/>
<path d="M65.6803 52.7301L59.7184 56.5953V51.2837L65.6803 47.4185V52.7301Z" fill="#EEE93B"/>
<path d="M11.9539 51.2837L6 47.4185V52.7301L11.9539 56.5953V51.2837Z" fill="#EEE93B"/>
<path d="M65.6803 18.626L59.7184 14.7607V20.0724L65.6803 23.9376V18.626Z" fill="url(#paint0_linear_10086_746)"/>
<path d="M11.9539 20.0724L6 23.9376V18.626L11.9539 14.7607V20.0724Z" fill="#EEE93B"/>
<path d="M52.981 60.1952L46.7057 56.571V63.8193L52.981 60.1952Z" fill="#EEE93B"/>
<path d="M12.2753 35.9513L6 32.3271V39.5754L12.2753 35.9513Z" fill="#EEE93B"/>
<path d="M17.3105 60.1952L23.5857 63.8193V56.571L17.3105 60.1952Z" fill="#EEE93B"/>
<path d="M59.4078 35.9513L65.6831 39.5754V32.3271L59.4078 35.9513Z" fill="#EEE93B"/>
<path d="M52.981 11.5306L46.7057 7.90649V15.1548L52.981 11.5306Z" fill="#EEE93B"/>
<path d="M17.3105 11.5306L23.5857 15.1548V7.90649L17.3105 11.5306Z" fill="#EEE93B"/>
<path d="M43.3917 40.4675L43.1909 31.1299L39.1252 28.7835L35.0836 31.0094L35.1077 26.7263L26.6951 31.6201L26.896 40.9577L30.9617 43.3042L35.0033 41.0782L34.9792 45.3613L43.3917 40.4675Z" fill="url(#paint1_linear_10086_746)" fill-opacity="0.7"/>
<path d="M35.0811 31.2981L26.9256 35.9589L31.0234 38.3294L35.057 36.0312L35.0811 31.2981Z" fill="#FFF000"/>
<path d="M35.0017 40.7891L43.1572 36.1284L39.0594 33.7578L35.0258 36.0561L35.0017 40.7891Z" fill="#FFF000"/>
<defs>
<linearGradient id="paint0_linear_10086_746" x1="73.0563" y1="13.8768" x2="-0.836381" y2="52.9323" gradientUnits="userSpaceOnUse">
<stop stop-color="#EEE93B"/>
<stop offset="1" stop-color="#898934"/>
</linearGradient>
<linearGradient id="paint1_linear_10086_746" x1="78.408" y1="8.55739" x2="-18.9734" y2="70.263" gradientUnits="userSpaceOnUse">
<stop stop-color="#EEE93B"/>
<stop offset="1" stop-color="#898934"/>
</linearGradient>
</defs>
</svg>
